<?xml version="1.0" encoding="UTF-8"?>
<svg width="46" height="46" viewBox="0 0 46 46" fill="none" xmlns="http://www.w3.org/2000/svg">
<path fill-rule="evenodd" clip-rule="evenodd" d="M7.24366 7.66787C6.71018 7.52498 6.16179 7.8416 6.01879 8.37505L0.758936 27.9968C0.615938 28.5302 0.932488 29.0785 1.46597 29.2214L37.2593 38.8082C37.7928 38.9511 38.3412 38.6344 38.4842 38.101L43.7441 18.4792C43.8871 17.9458 43.5705 17.3975 43.037 17.2546L7.24366 7.66787ZM20.326 30.4223C24.2945 31.4852 28.3739 29.1304 29.4375 25.1626C30.5011 21.1948 28.1462 17.1166 24.1777 16.0537C20.2092 14.9908 16.1299 17.3457 15.0662 21.3135C14.0026 25.2813 16.3575 29.3594 20.326 30.4223Z" fill="#858199"/>
<path fill-rule="evenodd" clip-rule="evenodd" d="M2.72266 13.082C2.72266 12.5297 3.17037 12.082 3.72266 12.082H40.78C41.3323 12.082 41.78 12.5297 41.78 13.082V33.3941C41.78 33.9464 41.3323 34.3941 40.78 34.3941H3.72266C3.17037 34.3941 2.72266 33.9464 2.72266 33.3941V13.082ZM29.6906 23.2381C29.6906 27.3456 26.3598 30.6755 22.2511 30.6755C18.1424 30.6755 14.8116 27.3456 14.8116 23.2381C14.8116 19.1305 18.1424 15.8007 22.2511 15.8007C26.3598 15.8007 29.6906 19.1305 29.6906 23.2381ZM22.2511 26.9568C24.3055 26.9568 25.9709 25.2919 25.9709 23.2381C25.9709 21.1843 24.3055 19.5194 22.2511 19.5194C20.1968 19.5194 18.5314 21.1843 18.5314 23.2381C18.5314 25.2919 20.1968 26.9568 22.2511 26.9568Z" fill="#9D9AAD"/>
</svg>
