<?xml version="1.0" encoding="UTF-8"?>
<svg width="46" height="46" viewBox="0 0 46 46" fill="none" xmlns="http://www.w3.org/2000/svg">
<path fill-rule="evenodd" clip-rule="evenodd" d="M16.505 40.075C16.1729 40.0969 15.8377 40.1081 15.5 40.1081C7.21573 40.1081 0.5 33.3943 0.5 25.1124C0.5 16.8305 7.21573 10.1167 15.5 10.1167C21.0521 10.1167 25.8997 13.1323 28.4933 17.6145H34.25C40.4632 17.6145 45.5 22.6499 45.5 28.8613C45.5 35.0727 40.4632 40.1081 34.25 40.1081H17.375C17.0823 40.1081 16.7921 40.0969 16.505 40.075Z" fill="#DAD9E0"/>
<path fill-rule="evenodd" clip-rule="evenodd" d="M20.3438 35.422C18.7042 35.422 17.375 34.2823 17.375 32.8764C17.375 31.4705 18.7042 30.3308 20.3438 30.3308C20.6907 30.3308 21.0238 30.3819 21.3333 30.4757V23.4114C21.3333 22.8893 21.6498 22.4278 22.1146 22.272L27.8047 20.4814C28.5215 20.2412 29.25 20.8155 29.25 21.6208V23.4114C29.25 24.0083 28.7069 24.3895 28.2604 24.4992C27.618 24.657 25.9687 24.9964 23.3125 25.5174V32.9286C23.3125 33.02 23.3053 33.1046 23.2912 33.1826C23.1149 34.4441 21.8625 35.422 20.3438 35.422Z" fill="#9D9AAD"/>
</svg>
