<svg width="41" height="41" viewBox="0 0 41 41" fill="none" xmlns="http://www.w3.org/2000/svg">
<path fill-rule="evenodd" clip-rule="evenodd" d="M21.8863 16.3212L31.5245 17.8857H31.6281C31.8895 17.8857 32.1262 17.7253 32.215 17.4824L35.6432 8.48404C35.7023 8.33342 35.6579 8.16337 35.5346 8.06133C35.4113 7.9593 35.2337 7.93987 35.0956 8.02247L32.1213 9.72302L27.7807 2.34262C27.0112 1.04534 25.6054 0.243652 24.0862 0.243652H17.595C16.0708 0.248511 14.6651 1.0502 13.9054 2.34748L9.78677 9.41692L12.0113 9.0428C13.8364 8.7367 15.6318 9.74245 16.2928 11.4527L17.1412 13.6489L19.6765 9.31003C19.9182 8.89703 20.3671 8.63952 20.8505 8.63952C21.3289 8.63952 21.7728 8.88732 22.0195 9.29059L24.7274 13.9064L21.7531 15.6069C21.5953 15.6798 21.5065 15.845 21.5361 16.0151C21.5706 16.1803 21.7137 16.3066 21.8863 16.3212ZM4.3681 33.4157C5.15497 34.7203 6.60097 35.5228 8.1696 35.5277H16.723L15.2361 33.7849C14.02 32.3523 14.02 30.2944 15.2361 28.8618L16.8456 26.9959H11.5266C11.0258 26.9959 10.5609 26.735 10.3105 26.3165C10.0601 25.8981 10.0652 25.3811 10.3156 24.9627L13.085 20.2955L16.166 21.994C16.3142 22.0728 16.4981 22.058 16.6208 21.9546C16.7485 21.8512 16.7945 21.6789 16.7332 21.5263L13.131 12.4136C13.039 12.1724 12.7988 12.0099 12.528 12.005H12.4156L2.44692 13.6493C2.29363 13.6838 2.171 13.8019 2.14545 13.9546C2.11991 14.1072 2.18633 14.2598 2.31918 14.3435L5.41045 16.0469L0.965151 23.5645C0.178283 24.8839 0.178283 26.5036 0.965151 27.8181L4.3681 33.4157ZM30.8972 21.554C32.3473 21.7922 33.7623 20.9683 34.2723 19.5983L35.3724 16.7095L39.7975 24.2988C40.5675 25.6241 40.5675 27.262 39.7975 28.5873L36.4924 34.2408C35.7174 35.566 34.2923 36.385 32.7473 36.385H23.9921V39.8496C23.9921 39.9538 23.9471 40.0531 23.8671 40.1275C23.7921 40.202 23.682 40.2367 23.577 40.2318C23.462 40.2318 23.352 40.1772 23.282 40.0878L16.9919 32.4936C16.7969 32.2653 16.7969 31.9278 16.9919 31.6945L23.262 24.0953C23.332 24.0059 23.442 23.9513 23.557 23.9513C23.662 23.9464 23.7721 23.9811 23.8471 24.0556C23.9271 24.13 23.9721 24.2293 23.9721 24.3385V27.8031H29.4272C29.9222 27.813 30.3872 27.5598 30.6422 27.133C30.8923 26.7061 30.8923 26.18 30.6422 25.7531L27.9172 21.0477L30.8972 21.554Z" fill="#858199"/>
</svg>
