<svg width="24" height="24" viewBox="0 0 24 24" fill="none"
  xmlns="http://www.w3.org/2000/svg">
  <path d="M19.0953 4.89969C17.16 2.96656 14.79 2 11.9872 2C9.21688 2 6.8725 2.96594 4.95344 4.89969C2.98406 6.9 2 9.26625 2 12C2 14.7328 2.98406 17.0831 4.95344 19.0494C6.9225 21.0169 9.26656 22 11.9872 22C14.74 22 17.1266 21.0078 19.1456 19.0247C21.0484 17.1412 22 14.7997 22 12C21.9997 9.19969 21.0316 6.8325 19.0953 4.89969ZM17.8434 17.725C16.1916 19.3581 14.2472 20.1741 12.0122 20.1741C9.77594 20.1741 7.84812 19.3656 6.22969 17.7487C4.61125 16.1319 3.80156 14.2156 3.80156 11.9997C3.80156 11.0622 3.94969 10.1756 4.24219 9.34031L6.89187 10.5134H6.70094V11.7019H7.63875C7.63875 11.87 7.62187 12.0372 7.62187 12.2044V12.4894H6.70094V13.6778H7.78875C7.93969 14.5653 8.27469 15.2853 8.72625 15.8544C9.66375 17.0934 11.1706 17.7625 12.8109 17.7625C13.8828 17.7625 14.8525 17.4447 15.4225 17.1262L15.0203 15.2687C14.6688 15.4528 13.8825 15.7034 13.1128 15.7034C12.2753 15.7034 11.4891 15.4528 10.9531 14.85C10.7022 14.5656 10.5181 14.18 10.4009 13.6781H14.0403L19.2119 15.9672C18.8541 16.6016 18.3994 17.1881 17.8434 17.725ZM11.3397 12.4891L11.3178 12.4722L11.3553 12.4891H11.3397ZM14.4534 11.7016H14.6031V10.5131H11.7687L10.6172 10.0037C10.7163 9.78094 10.8338 9.58156 10.9706 9.42562C11.4897 8.78844 12.2259 8.52094 13.0297 8.52094C13.7662 8.52094 14.4525 8.73844 14.8875 8.9225L15.3563 7.01375C14.7531 6.74656 13.8663 6.51219 12.8453 6.51219C11.2719 6.51219 9.9325 7.14813 8.97813 8.21938C8.76625 8.46406 8.5825 8.73875 8.41594 9.02906L5.1275 7.57375C5.44625 7.09594 5.82094 6.63719 6.255 6.19938C7.82406 4.59938 9.7425 3.79906 12.0125 3.79906C14.2812 3.79906 16.2091 4.59906 17.7944 6.19938C19.3956 7.7825 20.1966 9.71562 20.1966 12C20.1966 12.7522 20.1116 13.4619 19.9428 14.1313L14.4534 11.7016Z" fill="#000"/>
</svg>
