<svg width="24" height="24" viewBox="0 0 24 24" fill="none"
  xmlns="http://www.w3.org/2000/svg">
  <path d="M19.0963 4.89969C17.16 2.96656 14.7913 2 11.9869 2C9.21719 2 6.8725 2.96656 4.95406 4.89969C2.98438 6.9 2 9.26656 2 12C2 14.7331 2.98438 17.0837 4.95406 19.0503C6.9225 21.0169 9.26719 22 11.9869 22C14.7406 22 17.1272 21.0084 19.1459 19.025C21.0487 17.1419 22 14.7997 22 12C22 9.2 21.0319 6.83313 19.0963 4.89969ZM17.8441 17.725C16.1919 19.3584 14.2478 20.1747 12.0125 20.1747C9.77625 20.1747 7.84875 19.3662 6.23031 17.7494C4.61156 16.1334 3.8025 14.2166 3.8025 12C3.8025 11.1475 3.92469 10.3381 4.16625 9.56969L9.28594 11.8494H8.15937V13.4059H10.5019L10.7309 13.8813V14.6356H8.15937V16.1919H10.7309V18.4525H13.2194V16.1919H15.8072V14.7531L19.0722 16.2072C18.7378 16.7506 18.3288 17.2569 17.8441 17.725ZM15.5428 14.6356H13.22V13.8813L13.3372 13.6537L15.5428 14.6356ZM15.8075 12.5653V11.8494H14.2516L16.7906 7.17156H14.1369L12.3884 11.0428L11.4606 10.6297L9.86281 7.17156H7.20937L8.31063 9.22719L5.00875 7.75688C5.35188 7.21281 5.76625 6.69344 6.255 6.19969C7.82375 4.59969 9.7425 3.79969 12.0125 3.79969C14.2812 3.79969 16.2091 4.59969 17.7944 6.19969C19.3962 7.78312 20.1969 9.71625 20.1969 12C20.1969 12.8459 20.09 13.6378 19.8778 14.3772L15.8075 12.5653Z" fill="#000">
  </svg>
