<svg width="24" height="24" xmlns="http://www.w3.org/2000/svg"><path d="M22.748 15.428c.202.765-.202 1.53-.944 1.738l-4.835 1.426 4.835 1.426c.742.209 1.146.974.944 1.739a1.307 1.307 0 01-1.28 1.043c-.135 0-.269 0-.404-.07L12 20.058l-9.064 2.674c-.134.069-.269.069-.404.069a1.306 1.306 0 01-1.28-1.043c-.202-.766.202-1.53.944-1.739l4.834-1.426-4.834-1.426c-.742-.209-1.146-.974-.944-1.738.202-.766.944-1.183 1.684-.974L12 17.126l9.064-2.672c.742-.21 1.482.208 1.684.974zM12.687 1.2c-.002.001 4.113 2.058 4.113 9.6a4.77 4.77 0 01-4.8 4.8 4.77 4.77 0 01-4.8-4.8c0-3.702 2.057-6.171 2.057-6.171 3.635 3.635 4.389-.068 3.43-3.429z" fill="#FFF" fill-rule="nonzero"/></svg>