<?xml version="1.0" encoding="UTF-8"?>
<svg width="16px" height="16px" viewBox="0 0 16 16" version="1.1" xmlns="http://www.w3.org/2000/svg" xmlns:xlink="http://www.w3.org/1999/xlink">
    <!-- Generator: Sketch 43.1 (39012) - http://www.bohemiancoding.com/sketch -->
    <title>iconSave</title>
    <desc>Created with Sketch.</desc>
    <defs></defs>
    <g id="Page-1" stroke="none" stroke-width="1" fill="none" fill-rule="evenodd">
        <g id="iconSave" transform="translate(-4.000000, -4.000000)">
            <rect id="bound" x="0" y="0" width="24" height="24"></rect>
            <g id="iconDM" transform="translate(4.000000, 4.000000)" fill-rule="nonzero" fill="#858199">
                <path d="M13.9758285,0 L1.99922027,0 C0.899805068,0 0.00311890838,0.903732809 0.00311890838,1.98349705 L0.00311890838,11.0082515 C0.00311890838,12.1163065 0.899805068,12.9917485 1.99922027,12.9917485 L4.99337232,12.9917485 L4.99337232,15.6039293 C4.99337232,15.9104126 5.34424951,16.0895874 5.5897076,15.9088409 L9.48522417,12.9634578 L13.9764522,12.9634578 C15.0758674,12.9634578 15.9725536,12.059725 15.9725536,10.9799607 L15.9725536,1.98349705 C15.9719298,0.903732809 15.1017544,0 13.9758285,0 Z M4.24483431,10.0589391 L3.77387914,10.0589391 C3.35906433,10.0589391 3.02534113,9.72259332 3.02534113,9.30451866 C3.02534113,8.88644401 3.35906433,8.55009823 3.74580897,8.55009823 L4.21676413,8.55009823 C4.63001949,8.55009823 4.93723197,8.88801572 4.93723197,9.30451866 C4.93723197,9.72102161 4.68460039,10.0589391 4.24483431,10.0589391 Z M3.74580897,7.54420432 C3.35906433,7.54420432 3.02534113,7.20785855 3.02534113,6.78978389 C3.02534113,6.37170923 3.35906433,6.03536346 3.74580897,6.03536346 L6.73964912,6.03536346 C7.15290448,6.03536346 7.46011696,6.37328094 7.46011696,6.78978389 C7.46011696,7.20628684 7.1797271,7.51591356 6.73996101,7.51591356 L3.74580897,7.54420432 Z M9.23508772,10.0589391 L6.73996101,10.0589391 C6.32670565,10.0589391 6.01949318,9.72102161 6.01949318,9.30451866 C6.01949318,8.88801572 6.35321637,8.55009823 6.73996101,8.55009823 L9.23477583,8.55009823 C9.64803119,8.55009823 9.95524366,8.88801572 9.95524366,9.30451866 C9.95524366,9.72102161 9.6748538,10.0589391 9.23508772,10.0589391 Z M12.2292398,10.0589391 L11.7582846,10.0589391 C11.3450292,10.0589391 11.0378168,9.72102161 11.0378168,9.30451866 C11.0378168,8.88801572 11.3730994,8.55009823 11.7582846,8.55009823 L12.2292398,8.55009823 C12.6424951,8.55009823 12.9497076,8.88801572 12.9497076,9.30451866 C12.9497076,9.72102161 12.6690058,10.0589391 12.2292398,10.0589391 Z M12.2292398,7.54420432 L9.23539961,7.54420432 C8.82214425,7.54420432 8.51493177,7.20628684 8.51493177,6.78978389 C8.51493177,6.37328094 8.84834308,6.03536346 9.23508772,6.03536346 L12.2289279,6.03536346 C12.6421832,6.03536346 12.9493957,6.37328094 12.9493957,6.78978389 C12.9493957,7.20628684 12.6690058,7.54420432 12.2292398,7.54420432 Z" id="Shape"></path>
            </g>
        </g>
    </g>
</svg>