<svg width="28" height="28" viewBox="0 0 28 28" fill="none" xmlns="http://www.w3.org/2000/svg">
    <path fill-rule="evenodd" clip-rule="evenodd" d="M18.4444 2.45736V5.14155C18.4444 6.03628 17.6313 6.6077 16.9629 6.77216C16.0012 7.00878 13.5321 7.51757 9.55552 8.29853V24.4036C9.55552 25.1128 9.26666 25.5499 8.7634 25.7402C7.96161 26.7028 6.6247 27.3333 5.11107 27.3333C2.65647 27.3333 0.666626 25.6751 0.666626 23.6296C0.666626 21.5841 2.65647 19.9259 5.11107 19.9259C5.63119 19.9259 6.13045 20.0004 6.59432 20.1372L6.59255 5.14155C6.59255 4.35887 7.0663 3.667 7.76209 3.43355L16.2806 0.74936C17.3538 0.389271 18.4444 1.25012 18.4444 2.45736ZM25.8518 21.4074C26.67 21.4074 27.3333 22.0707 27.3333 22.8889C27.3333 23.7071 26.67 24.3704 25.8518 24.3704H16.9629C16.1447 24.3704 15.4814 23.7071 15.4814 22.8889C15.4814 22.0707 16.1447 21.4074 16.9629 21.4074H25.8518ZM25.8518 15.4815C26.67 15.4815 27.3333 16.1448 27.3333 16.963C27.3333 17.7812 26.67 18.4444 25.8518 18.4444H16.9629C16.1447 18.4444 15.4814 17.7812 15.4814 16.963C15.4814 16.1448 16.1447 15.4815 16.9629 15.4815H25.8518ZM25.8518 9.55555C26.67 9.55555 27.3333 10.2188 27.3333 11.037C27.3333 11.8552 26.67 12.5185 25.8518 12.5185H19.9259C19.1077 12.5185 18.4444 11.8552 18.4444 11.037C18.4444 10.2188 19.1077 9.55555 19.9259 9.55555H25.8518Z" fill="#7E1BCC" />
</svg>