<svg width="24" height="24" viewBox="0 0 24 24" fill="none"
  xmlns="http://www.w3.org/2000/svg">
  <path d="M2 4.85713C2 4.06829 2.63973 3.42856 3.42857 3.42856H20.5714C21.3616 3.42856 22 4.06829 22 4.85713C22 5.64731 21.3616 6.2857 20.5714 6.2857H3.42857C2.63973 6.2857 2 5.64731 2 4.85713ZM2 12C2 11.2098 2.63973 10.5714 3.42857 10.5714H20.5714C21.3616 10.5714 22 11.2098 22 12C22 12.7902 21.3616 13.4286 20.5714 13.4286H3.42857C2.63973 13.4286 2 12.7902 2 12ZM20.5714 20.5714H3.42857C2.63973 20.5714 2 19.933 2 19.1428C2 18.3527 2.63973 17.7143 3.42857 17.7143H20.5714C21.3616 17.7143 22 18.3527 22 19.1428C22 19.933 21.3616 20.5714 20.5714 20.5714Z" fill="#000"/>
</svg>
